<svg width="805" height="900" fill="none" xmlns="http://www.w3.org/2000/svg"><path fill-rule="evenodd" clip-rule="evenodd" d="m183.704 151.058 144.614 188.028-90.189 115.876L3 151.058h180.704Z" fill="url(#a)" fill-opacity=".95"/><path d="M624.013-42v-1.5h-.734l-.451.58 1.185.92ZM3.165 757.913l-1.185-.92-1.878 2.42h3.063v-1.5ZM777.032-42l1.193.909 1.835-2.409h-3.028v1.5ZM409.287 440.77l-1.194-.909-.698.917.706.911 1.186-.919ZM804.792 951v1.5h3.061l-1.876-2.419-1.185.919Zm-192.307 0-1.194.909.45.591h.744V951Zm-295.93-388.494 1.194-.909-1.194-1.567-1.193 1.567 1.193.909ZM167.706 757.913v1.5h.743l.45-.592-1.193-.908ZM622.828-42.92 1.98 756.993l2.37 1.839L625.198-41.08l-2.37-1.84Zm154.204-.58H624.013v3h153.019v-3ZM410.48 441.679l367.745-482.77-2.387-1.818-367.745 482.77 2.387 1.818Zm395.497 508.402-395.505-510.23-2.371 1.838 395.505 510.23 2.371-1.838ZM612.485 952.5h192.307v-3H612.485v3ZM315.362 563.415l295.929 388.494 2.387-1.818-295.929-388.494-2.387 1.818ZM168.899 758.821l148.85-195.406-2.387-1.818-148.849 195.407 2.386 1.817Zm-165.734.592h164.541v-3H3.165v3Z" fill="url(#b)" fill-opacity=".6"/><defs><linearGradient id="a" x1="84.288" y1="150.768" x2="282.034" y2="407.188" gradientUnits="userSpaceOnUse"><stop stop-color="#3F18B0"/><stop offset="1" stop-color="#4779E0" stop-opacity="0"/></linearGradient><linearGradient id="b" x1="136.42" y1="30.695" x2="665.188" y2="715.143" gradientUnits="userSpaceOnUse"><stop stop-color="#4779E0"/><stop offset="1" stop-color="#3F18B0" stop-opacity="0"/></linearGradient></defs></svg>